<svg width="89" height="89" viewBox="0 0 89 89" fill="none" xmlns="http://www.w3.org/2000/svg">
<circle cx="44.5" cy="44.5" r="44.5" fill="#1D1D1D"/>
<path fill-rule="evenodd" clip-rule="evenodd" d="M44.5025 29C48.6462 29 52.5404 30.6111 55.4654 33.5375C61.5115 39.5836 61.5115 49.4201 55.4654 55.4662C52.5015 58.4316 48.5106 60.0008 44.4679 60.0008C42.264 60.0008 40.0458 59.5349 37.9703 58.5744C37.3588 58.3292 36.7862 58.0984 36.3751 58.0984C35.902 58.1013 35.266 58.3205 34.6516 58.5325C33.391 58.9652 31.8218 59.5047 30.6607 58.3479C29.504 57.1898 30.0376 55.6249 30.4675 54.3657C30.6795 53.7456 30.8973 53.1052 30.8973 52.6206C30.8973 52.2225 30.7054 51.7148 30.4112 50.9835C27.7098 45.1494 28.9588 38.1182 33.541 33.5389C36.466 30.6125 40.3587 29 44.5025 29ZM44.5039 31.1635C40.9371 31.1635 37.5866 32.5509 35.0698 35.0692C31.1266 39.0096 30.0535 45.06 32.3972 50.1268C32.7347 50.9619 33.0607 51.7754 33.0607 52.6206C33.0607 53.4643 32.7708 54.3138 32.5155 55.0638C32.3049 55.6811 31.9862 56.6128 32.191 56.8177C32.3915 57.0253 33.329 56.6979 33.9477 56.4859C34.6905 56.2321 35.5328 55.9407 36.3679 55.935C37.2044 55.935 37.9934 56.2523 38.8285 56.5883C43.9443 58.9537 49.9948 57.8777 53.9366 53.9374C59.1375 48.7336 59.1375 40.2687 53.9366 35.0678C51.4183 32.5495 48.0693 31.1635 44.5039 31.1635ZM50.1965 43.6577C50.9927 43.6577 51.6388 44.3024 51.6388 45.1C51.6388 45.8976 50.9927 46.5423 50.1965 46.5423C49.4004 46.5423 48.7485 45.8976 48.7485 45.1C48.7485 44.3024 49.3874 43.6577 50.1836 43.6577H50.1965ZM44.4146 43.6577C45.2108 43.6577 45.8569 44.3024 45.8569 45.1C45.8569 45.8976 45.2108 46.5423 44.4146 46.5423C43.6185 46.5423 42.9666 45.8976 42.9666 45.1C42.9666 44.3024 43.6041 43.6577 44.4017 43.6577H44.4146ZM38.6322 43.6577C39.4283 43.6577 40.0745 44.3024 40.0745 45.1C40.0745 45.8976 39.4283 46.5423 38.6322 46.5423C37.836 46.5423 37.1841 45.8976 37.1841 45.1C37.1841 44.3024 37.823 43.6577 38.6192 43.6577H38.6322Z" fill="white"/>
</svg>
