<svg width="89" height="89" viewBox="0 0 89 89" fill="none" xmlns="http://www.w3.org/2000/svg">
<circle cx="44.5" cy="44.5" r="44.5" fill="#1D1D1D"/>
<path fill-rule="evenodd" clip-rule="evenodd" d="M57.9231 56.0408C58.5175 56.0408 59 56.5232 59 57.1177C59 57.7121 58.5175 58.1946 57.9231 58.1946H47.5088C46.9143 58.1946 46.4319 57.7121 46.4319 57.1177C46.4319 56.5232 46.9143 56.0408 47.5088 56.0408H57.9231ZM51.269 31.9385C51.3408 31.9945 53.743 33.8612 53.743 33.8612C54.616 34.3809 55.2981 35.3099 55.5565 36.4098C55.8135 37.4982 55.6269 38.621 55.0281 39.5701C55.0241 39.5765 55.0201 39.5827 55.0063 39.6013L54.9955 39.6157C54.8983 39.7438 54.4758 40.278 52.3435 42.9496C52.3237 42.9846 52.3012 43.0174 52.2767 43.0492C52.2408 43.0962 52.2016 43.1394 52.1599 43.1787C52.0144 43.3618 51.8608 43.5542 51.6993 43.7565L51.372 44.1664C50.6967 45.0121 49.8957 46.0149 48.9455 47.2044L48.4578 47.8148C46.6233 50.111 44.2737 53.0509 41.2639 56.8163C40.6049 57.6376 39.617 58.1157 38.5559 58.1287L33.3308 58.1947H33.3164C32.8182 58.1947 32.3846 57.853 32.2683 57.3662L31.0923 52.3824C30.8496 51.35 31.0909 50.2846 31.7528 49.4575L45.2786 32.5402C45.2844 32.5344 45.2887 32.5272 45.2944 32.5215C46.7777 30.7482 49.4598 30.4869 51.269 31.9385ZM43.7706 37.8735L33.4342 50.8029C33.1886 51.1102 33.0982 51.5065 33.1886 51.887L34.1665 56.0294L38.5301 55.9749C38.945 55.9706 39.3284 55.7853 39.5825 55.4695C40.8913 53.832 42.5362 51.7739 44.2274 49.6576L44.8257 48.9089L45.425 48.1589C47.011 46.174 48.5779 44.2129 49.889 42.5714L43.7706 37.8735ZM46.9528 33.8956L45.116 36.1906L51.2338 40.8872C52.4114 39.4123 53.1861 38.4408 53.2577 38.3482C53.4932 37.9663 53.5851 37.4264 53.4616 36.9066C53.3352 36.3739 53.0035 35.9216 52.5254 35.633C52.4235 35.5627 50.004 33.6845 49.9294 33.6257C49.019 32.8963 47.6909 33.0226 46.9528 33.8956Z" fill="white"/>
</svg>
