<svg width="89" height="89" viewBox="0 0 89 89" fill="none" xmlns="http://www.w3.org/2000/svg">
<circle cx="44.5" cy="44.5" r="44.5" fill="#1D1D1D"/>
<path fill-rule="evenodd" clip-rule="evenodd" d="M44.5049 30C52.1564 30.0055 59.0272 35.3686 62.8862 44.3484C63.0379 44.6981 63.0379 45.094 62.8862 45.4436C59.029 54.4252 52.1564 59.7883 44.5049 59.7939H44.4938C36.8423 59.7883 29.9714 54.4252 26.1124 45.4436C25.9625 45.094 25.9625 44.6981 26.1124 44.3484C29.9714 35.3686 36.8441 30.0055 44.4938 30H44.5049ZM44.4993 32.775C38.1428 32.7768 32.345 37.2963 28.904 44.896C32.345 52.4976 38.1409 57.0171 44.4993 57.0189C50.8577 57.0171 56.6537 52.4976 60.0946 44.896C56.6537 37.2963 50.8577 32.7768 44.4993 32.775ZM44.4988 37.6604C48.4892 37.6604 51.7359 40.9071 51.7359 44.8975C51.7359 48.886 48.4892 52.1309 44.4988 52.1309C40.5084 52.1309 37.2635 48.886 37.2635 44.8975C37.2635 40.9071 40.5084 37.6604 44.4988 37.6604ZM44.4988 40.4353C42.0383 40.4353 40.0385 42.437 40.0385 44.8975C40.0385 47.3561 42.0383 49.3559 44.4988 49.3559C46.9592 49.3559 48.9609 47.3561 48.9609 44.8975C48.9609 42.437 46.9592 40.4353 44.4988 40.4353Z" fill="white"/>
</svg>
