<svg width="89" height="89" viewBox="0 0 89 89" fill="none" xmlns="http://www.w3.org/2000/svg">
<circle cx="44.5" cy="44.5" r="44.5" fill="#1D1D1D"/>
<path fill-rule="evenodd" clip-rule="evenodd" d="M43.1354 32.0465C43.6646 32.0465 44.0942 32.4754 44.0942 33.0038C44.0942 33.5323 43.6646 33.9612 43.1354 33.9612H38.3551C35.0515 33.9612 32.9177 36.2206 32.9177 39.7169V50.3296C32.9177 53.8259 35.0515 56.0853 38.3551 56.0853H49.6364C52.94 56.0853 55.0751 53.8259 55.0751 50.3296V45.1879C55.0751 44.6594 55.5047 44.2305 56.034 44.2305C56.5633 44.2305 56.9928 44.6594 56.9928 45.1879V50.3296C56.9928 54.9173 54.0357 58 49.6364 58H38.3551C33.9559 58 31 54.9173 31 50.3296V39.7169C31 35.1292 33.9559 32.0465 38.3551 32.0465H43.1354ZM54.2704 33.168L55.8263 34.7215C56.5845 35.4772 57.0013 36.4817 57 37.5514C57 38.6211 56.5832 39.6245 55.8263 40.3789L46.2262 49.964C45.5218 50.6673 44.5834 51.0554 43.5862 51.0554H38.797C38.5387 51.0554 38.2907 50.9507 38.1104 50.7656C37.9301 50.5818 37.8317 50.3329 37.8381 50.0738L37.9583 45.2499C37.9826 44.29 38.3699 43.3875 39.0501 42.7072H39.0514L48.6055 33.168C50.1678 31.6107 52.7081 31.6107 54.2704 33.168ZM47.8184 36.6605L40.4066 44.0615C40.0754 44.3921 39.8875 44.8312 39.876 45.2972L39.7801 49.1407H43.5862C44.072 49.1407 44.5271 48.953 44.871 48.6096L52.3277 41.1626L47.8184 36.6605ZM49.9607 34.5223L49.1736 35.3061L53.6828 39.8095L54.4712 39.0245C54.8649 38.6314 55.0823 38.108 55.0823 37.5514C55.0823 36.9936 54.8649 36.469 54.4712 36.0758L52.9152 34.5223C52.1008 33.7118 50.7763 33.7118 49.9607 34.5223Z" fill="white"/>
</svg>
