<svg width="89" height="89" viewBox="0 0 89 89" fill="none" xmlns="http://www.w3.org/2000/svg">
<circle cx="44.5" cy="44.5" r="44.5" fill="#1D1D1D"/>
<path fill-rule="evenodd" clip-rule="evenodd" d="M45.0193 29.003C49.5586 29.003 53.2553 32.6997 53.2553 37.2437L53.2552 39.6946C56.0148 40.655 58 43.2823 58 46.3656V53.0331C58 56.9272 54.8334 60.0939 50.9392 60.0939H39.0608C35.1666 60.0939 32 56.9272 32 53.0331V46.3656C32 43.2828 33.9844 40.656 36.7433 39.6952L36.7444 37.2437C36.7537 35.0051 37.6196 32.9391 39.1819 31.3908C40.7458 29.8409 42.8102 28.9439 45.0193 29.003ZM50.9392 41.6366H39.0608C36.4523 41.6366 34.3318 43.757 34.3318 46.3656V53.0331C34.3318 55.6416 36.4523 57.762 39.0608 57.762H50.9392C53.5462 57.762 55.6682 55.6416 55.6682 53.0331V46.3656C55.6682 43.757 53.5462 41.6366 50.9392 41.6366ZM44.9997 46.8067C45.6433 46.8067 46.1656 47.3291 46.1656 47.9727V51.4253C46.1656 52.0689 45.6433 52.5912 44.9997 52.5912C44.3561 52.5912 43.8338 52.0689 43.8338 51.4253V47.9727C43.8338 47.3291 44.3561 46.8067 44.9997 46.8067ZM45.0146 31.3348H44.9897C43.415 31.3348 41.9397 31.9411 40.8251 33.0464C39.7027 34.1564 39.0824 35.6378 39.0762 37.2173L39.0748 39.3039H50.9221L50.9235 37.2437C50.9235 33.9854 48.273 31.3348 45.0146 31.3348Z" fill="white"/>
</svg>
