<svg width="89" height="89" viewBox="0 0 89 89" fill="none" xmlns="http://www.w3.org/2000/svg">
<circle cx="44.5" cy="44.5" r="44.5" fill="#1D1D1D"/>
<path fill-rule="evenodd" clip-rule="evenodd" d="M43.9996 28C45.8694 28 55.6806 31.3683 56.9794 32.6671C58.062 33.7497 58.0455 34.6244 57.9696 38.8163C57.9399 40.4963 57.8986 42.7853 57.8986 45.9539C57.8986 57.3115 44.9105 61.3746 44.3577 61.5413C44.2405 61.5776 44.12 61.5941 43.9996 61.5941C43.8791 61.5941 43.7586 61.5776 43.6414 61.5413C43.0886 61.3746 30.1005 57.3115 30.1005 45.9539C30.1005 42.7902 30.0592 40.5012 30.0295 38.8212C30.016 38.0718 30.0043 37.4283 30.0005 36.8706L30 36.2414C30.0142 34.1741 30.2082 33.4791 31.0214 32.6671C32.3169 31.3683 42.1281 28 43.9996 28ZM43.9996 30.4755C42.6001 30.4755 33.7708 33.5847 32.7526 34.4346C32.4522 34.7366 32.4407 35.2614 32.505 38.775C32.5347 40.4682 32.576 42.7688 32.576 45.9539C32.576 54.5373 42.0192 58.3479 43.9979 59.0493C45.975 58.3446 55.4231 54.5125 55.4231 45.9539C55.4231 42.7655 55.4644 40.4633 55.4957 38.77C55.5585 35.2598 55.5469 34.735 55.2284 34.4181C54.2299 33.5847 45.399 30.4755 43.9996 30.4755ZM50.1413 40.1126C50.6248 40.5961 50.6248 41.38 50.1413 41.8636L43.7083 48.2982C43.5234 48.4844 43.2847 48.605 43.0285 48.6459L42.8336 48.6613C42.5052 48.6613 42.19 48.5309 41.9573 48.2982L38.8349 45.1725C38.353 44.6889 38.353 43.9034 38.8365 43.4215C39.3184 42.9379 40.104 42.9379 40.5875 43.4215L42.8336 45.6709L48.3919 40.1126C48.8755 39.629 49.6577 39.629 50.1413 40.1126Z" fill="white"/>
</svg>
