<svg width="54" height="53" viewBox="0 0 54 53" fill="none" xmlns="http://www.w3.org/2000/svg">
<rect width="54" height="53" rx="13" fill="white"/>
<path d="M32.6737 15C34.35 15 35.9625 15.6625 37.1487 16.8512C38.3362 18.0375 39 19.6375 39 21.3125V31.1875C39 34.675 36.1625 37.5 32.6737 37.5H20.325C16.8363 37.5 14 34.675 14 31.1875V21.3125C14 17.825 16.8237 15 20.325 15H32.6737ZM34.0875 21.5C33.825 21.4862 33.575 21.575 33.3862 21.75L27.75 26.25C27.025 26.8512 25.9862 26.8512 25.25 26.25L19.625 21.75C19.2362 21.4625 18.6988 21.5 18.375 21.8375C18.0375 22.175 18 22.7125 18.2863 23.0875L18.45 23.25L24.1375 27.6875C24.8375 28.2375 25.6863 28.5375 26.575 28.5375C27.4613 28.5375 28.325 28.2375 29.0238 27.6875L34.6625 23.175L34.7625 23.075C35.0613 22.7125 35.0613 22.1875 34.7488 21.825C34.575 21.6388 34.3363 21.525 34.0875 21.5Z" fill="black"/>
</svg>
